# xmcd
#
# Track frame offsets: 
#        150
#        13827
#        26737
#        37955
#        51037
#        64285
#        74042
#        87185
#        100377
#        114145
#        126182
#        140197
#        152262
#        163185
#        175042
#        188730
#        201222
#        212582
#        223347
#        234702
#        245007
#        254500
#        264127
#        273575
#
# Disc length: 3798 seconds
#
# Revision: 2
# Processed by: cddbd v1.5.2PL0 Copyright (c) Steve Scherf et al.
# Submitted via: ExactAudioCopyFreeDBPlugin 1.0
#
DISCID=680ed418
DTITLE=T-Bone Walker - The Complete Recordings of T-Bone Walker, 1940-
DTITLE=1954 [Mosaic box set]
DYEAR=1990
DGENRE=Blues
TTITLE0=Here in the Dark
TTITLE1=Blue Mood
TTITLE2=Everytime
TTITLE3=I Miss You Baby
TTITLE4=Lollie Lou
TTITLE5=Party Girl
TTITLE6=Love is a Gamble
TTITLE7=High Society
TTITLE8=Long Distance Blues
TTITLE9=Got No Use for You
TTITLE10=I'm Still in Love with You
TTITLE11=Railroad Station Blues
TTITLE12=Vida Lee
TTITLE13=My Baby is Now on My Mind
TTITLE14=Doin' Time
TTITLE15=Bye, Bye, Baby
TTITLE16=When the Sun Goes Down
TTITLE17=Pony Tail
TTITLE18=Wanderin' Heart
TTITLE19=I'll Always Be in Love with You
TTITLE20=I'll Understand
TTITLE21=Hard Way
TTITLE22=Teen Age Baby
TTITLE23=Strugglin' Blues
EXTD=#2319 of 7500 8-D
EXTT0=
EXTT1=
EXTT2=
EXTT3=
EXTT4=
EXTT5=
EXTT6=
EXTT7=
EXTT8=
EXTT9=
EXTT10=
EXTT11=
EXTT12=
EXTT13=
EXTT14=
EXTT15=
EXTT16=
EXTT17=
EXTT18=
EXTT19=
EXTT20=
EXTT21=
EXTT22=
EXTT23=
PLAYORDER=
